<svg xmlns="http://www.w3.org/2000/svg" width="36" height="36" viewBox="0 0 36 36"><g transform="translate(0 -1016.362)"><rect width="36" height="36" y="1016.362" fill="#f05542" rx="6" ry="6"/><g transform="translate(253.5 -340)"><rect width="28" height="21" x="-248" y="1362.362" color="#000" opacity=".15" overflow="visible" rx="1.4" ry="1.4" style="isolation:auto;mix-blend-mode:normal"/><rect style="isolation:auto;mix-blend-mode:normal" width="28" height="21" x="-253" y="1366.362" color="#000" opacity=".15" overflow="visible" rx="1.4" ry="1.4"/><rect style="isolation:auto;mix-blend-mode:normal" width="28" height="21" x="-247" y="1362.362" fill="#f8b84e" color="#000" overflow="visible" rx="1.4" ry="1.4"/><path d="m -239.6,1367.9155 c 0,1.5464 -1.25331,2.8029 -2.8,2.8029 -1.54669,0 -2.8,-1.2565 -2.8,-2.8029 0,-1.5468 1.25331,-2.7971 2.8,-2.7971 1.54669,0 2.8,1.2503 2.8,2.7971 z" opacity=".15"/><path fill="#e9eded" d="m -238.6,1367.9155 c 0,1.5464 -1.2533,2.8029 -2.8,2.8029 -1.54669,0 -2.8,-1.2565 -2.8,-2.8029 0,-1.5468 1.25331,-2.7971 2.8,-2.7971 1.5467,0 2.8,1.2503 2.8,2.7971 z"/><path fill="#2b4255" d="m -231.43095,1368.1907 c 0.34724,0.039 0.70947,0.1999 0.98984,0.4815 l 0.014,0.014 3.30585,3.6829 1.59688,-1.7801 0.014,-0.014 c 0.24839,-0.2483 0.59805,-0.4519 1.02539,-0.4757 0.42734,-0.024 0.88866,0.1645 1.23868,0.5141 l 0.0218,0.022 1.42187,1.6871 0,6.5789 c 9.8e-4,0.017 0.003,0.035 0.003,0.049 l 0,0.071 -0.003,0.017 0,1.5231 -0.7,0 c -0.36508,0 -0.56287,0 -0.90508,0 l -0.0602,0 -9.43086,0 -6.8332,0 -0.0574,0 c -0.88117,0 -1.61066,-0.7269 -1.61066,-1.6079 0,-0.3406 0.0904,-0.6285 0.20234,-0.8257 0.0349,-0.06 0.0675,-0.099 0.10122,-0.1423 l 0.0112,-0.028 0.0519,-0.057 c 0.0188,-0.021 0.0318,-0.029 0.041,-0.043 0.0126,-0.014 0.0112,-0.014 0.008,-0.014 l 8.18125,-9.1273 0.014,-0.014 c 0.33476,-0.3347 0.71192,-0.5086 1.01993,-0.5086 0.10864,-0.014 0.22332,-0.015 0.33905,0 z" color="#000" overflow="visible" style="isolation:auto;mix-blend-mode:normal"/><rect width="28" height="21" x="-252" y="1366.362" fill="#25b39e" color="#000" overflow="visible" rx="1.4" ry="1.4" style="isolation:auto;mix-blend-mode:normal"/><path d="m -244.6,1371.9155 c 0,1.5464 -1.25331,2.8029 -2.8,2.8029 -1.54669,0 -2.8,-1.2565 -2.8,-2.8029 0,-1.5468 1.25331,-2.7971 2.8,-2.7971 1.54669,0 2.8,1.2503 2.8,2.7971 z" opacity=".15"/><path d="m -237.43095,1372.1907 c 0.34724,0.039 0.70946,0.1999 0.98984,0.4815 l 0.014,0.014 3.30585,3.6829 1.59688,-1.7801 0.014,-0.014 c 0.24839,-0.2483 0.59805,-0.4519 1.02539,-0.4757 0.42733,-0.024 0.88866,0.1645 1.23868,0.5141 l 0.0218,0.022 1.42186,1.6871 0,6.5789 c 9.8e-4,0.017 0.003,0.035 0.003,0.049 l 0,0.071 -0.003,0.017 0,1.5231 -0.7,0 c -0.36507,0 -0.56287,0 -0.90507,0 l -0.0602,0 -9.43086,0 -6.8332,0 -0.0574,0 c -0.88118,0 -1.61066,-0.7269 -1.61066,-1.6079 0,-0.3406 0.0904,-0.6285 0.20234,-0.8257 0.0349,-0.06 0.0675,-0.099 0.10122,-0.1423 l 0.0112,-0.028 0.0519,-0.057 c 0.0188,-0.021 0.0318,-0.029 0.041,-0.043 0.0126,-0.014 0.0112,-0.014 0.008,-0.014 l 8.18125,-9.1273 0.014,-0.014 c 0.33475,-0.3347 0.71191,-0.5086 1.01993,-0.5086 0.10864,-0.014 0.22331,-0.015 0.33905,0 z" color="#000" opacity=".15" overflow="visible" style="isolation:auto;mix-blend-mode:normal"/><path fill="#e9eded" d="m -243.6,1371.9155 c 0,1.5464 -1.25331,2.8029 -2.8,2.8029 -1.54669,0 -2.8,-1.2565 -2.8,-2.8029 0,-1.5468 1.25331,-2.7971 2.8,-2.7971 1.54669,0 2.8,1.2503 2.8,2.7971 z"/><path fill="#2b4255" style="isolation:auto;mix-blend-mode:normal" d="m -236.43095,1372.1907 c 0.34724,0.039 0.70946,0.1999 0.98984,0.4815 l 0.014,0.014 3.30585,3.6829 1.59688,-1.7801 0.014,-0.014 c 0.24839,-0.2483 0.59805,-0.4519 1.02539,-0.4757 0.42733,-0.024 0.88866,0.1645 1.23868,0.5141 l 0.0218,0.022 1.42186,1.6871 0,6.5789 c 9.8e-4,0.017 0.003,0.035 0.003,0.049 l 0,0.071 -0.003,0.017 0,1.5231 -0.7,0 c -0.36507,0 -0.56287,0 -0.90507,0 l -0.0602,0 -9.43086,0 -6.8332,0 -0.0574,0 c -0.88118,0 -1.61066,-0.7269 -1.61066,-1.6079 0,-0.3406 0.0904,-0.6285 0.20234,-0.8257 0.0349,-0.06 0.0675,-0.099 0.10122,-0.1423 l 0.0112,-0.028 0.0519,-0.057 c 0.0188,-0.021 0.0318,-0.029 0.041,-0.043 0.0126,-0.014 0.0112,-0.014 0.008,-0.014 l 8.18125,-9.1273 0.014,-0.014 c 0.33476,-0.3347 0.71192,-0.5086 1.01993,-0.5086 0.10864,-0.014 0.22331,-0.015 0.33905,0 z" color="#000" overflow="visible"/></g></g></svg>