<svg xmlns="http://www.w3.org/2000/svg" enable-background="new 0 0 52 52" viewBox="0 0 52 52"><path fill="#CA986E" d="M26.00508,42.8347c-4.56573,0-8.42407,3.01575-9.69659,7.16388H35.693
			C34.42072,45.85045,30.56373,42.8347,26.00508,42.8347z"/><path d="M31.93218 49.99858h3.75727c-1.27222-4.14655-5.12848-7.16211-9.68378-7.16211-.63995 0-1.25995.06-1.87.17999C27.84423 43.71233 30.83819 46.43761 31.93218 49.99858zM38.9878 32.8118c0 0-1.19954 4.58581-4.7745 6.70871-3.57741 2.13255-8.18524.97891-8.18524.97891s.22448-.8406.76083-1.97321c1.66818.0949 4.03846-.05435 6.0813-1.26749 2.04282-1.21309 3.30834-3.22282 4.01124-4.72573C38.13259 32.60411 38.9878 32.8118 38.9878 32.8118z" opacity=".05"/><path fill="#55D393" d="M30.80799 33.79027c-3.5777 2.12457-4.77588 6.71332-4.77588 6.71332s4.60248 1.14417 8.18023-.98041c3.57776-2.12451 4.77588-6.71332 4.77588-6.71332S34.38575 31.66569 30.80799 33.79027zM21.22077 31.62358c-3.57776-2.12451-8.18024-.98035-8.18024-.98035s1.19812 4.58875 4.77588 6.71332c3.5777 2.12457 8.18024.98041 8.18024.98041S24.79847 33.74815 21.22077 31.62358z"/><path d="M13.04096,30.64513c0,0,1.19954,4.58581,4.7745,6.70872c3.57741,2.13255,8.18524,0.9789,8.18524,0.9789
					s-0.22448-0.8406-0.76083-1.97321c-1.66818,0.0949-4.03846-0.05436-6.0813-1.2675
					c-2.04282-1.21309-3.30834-3.22282-4.01124-4.72573C13.89617,30.43745,13.04096,30.64513,13.04096,30.64513z" opacity=".05"/><path fill="#F6C560" d="M44.22717,4.51131v23.15651h-36.455V4.51131L10.62022,2.005
				c2.36957,1.08605,4.73154,1.9215,7.10111,2.50632h16.55664c2.36962-0.58481,4.73159-1.42027,7.09356-2.50632L44.22717,4.51131z"/><path fill="#231F20" d="M44.23071,4.50861v23.15997H7.77069v-2.90002h21.21002c6.81,0,12.33997-5.52997,12.33997-12.33997
				V2.02857c0.02002,0,0.03003-0.01001,0.05005-0.01996L44.23071,4.50861z" opacity=".05"/><path fill="#E2E2E2" d="M41.37508,2.00162v22.76682H28.70223c-1.49282,0-2.70369,1.21091-2.70369,2.70369V4.70416
						c0-1.49257,1.20997-2.70254,2.70255-2.70254H41.37508z"/><path fill="#231F20" d="M41.37073,1.9986v22.76996H28.70068c-1.48999,0-2.70001,1.21002-2.70001,2.70001v-6.32001h6.99005
						c3,0,5.42999-2.42999,5.42999-5.41998V1.9986H41.37073z" opacity=".05"/><path fill="#E2E2E2" d="M26.00067,4.70856v22.76001c0-0.75-0.29999-1.41998-0.79999-1.90997
						c-0.47998-0.48999-1.15997-0.79004-1.90997-0.79004H10.62073V1.9986h12.67999
						C24.79071,1.9986,26.00067,3.20856,26.00067,4.70856z"/><path fill="#231F20" d="M26.00067,21.14857v6.32001c0-0.75-0.29999-1.41998-0.79999-1.90997
						c-0.47998-0.48999-1.15997-0.79004-1.90997-0.79004H10.62073v-3.62H26.00067z" opacity=".05"/><line x1="7.772" x2="10.622" y1="27.668" y2="24.768" fill="none"/><line x1="41.375" x2="44.227" y1="24.768" y2="27.668" fill="none"/><path fill="#293C66" d="M44.97755,4.51121c0-0.21582-0.09277-0.42139-0.25488-0.56397L41.91187,1.481
					c-0.14732-0.15168-0.43671-0.22955-0.53687-0.22955H28.70118c-1.10016,0-2.07037,0.52655-2.70313,1.33026
					c-0.63263-0.80371-1.60254-1.33026-2.70215-1.33026H10.62208c-0.56803,0-1.12231,0.87659-3.34473,2.69678
					c-0.16211,0.14258-0.2549,0.34766-0.2549,0.56299v23.15674c0,0.0011,0.00063,0.00195,0.00063,0.00305
					c0.00186,0.42478,0.3519,0.74695,0.74937,0.74695h17.47853v6.35584c-0.80341-1.34595-1.98206-2.80658-3.64746-3.79529
					c-2.52259-1.49789-6.16639-1.6962-8.74414-1.06348c-0.40775,0.10143-0.64982,0.51707-0.54492,0.91748
					c0.05176,0.19971,1.31934,4.91309,5.11914,7.16895c2.30461,1.36845,5.21806,1.61418,7.81738,1.23492v2.87872
					c-4.49438,0.3042-8.32233,3.30389-9.65918,7.6637c-0.07031,0.22705-0.02734,0.47412,0.11328,0.66553
					c0.1416,0.19141,0.36523,0.3042,0.60352,0.3042h19.38476c0.23828,0,0.46191-0.11279,0.60352-0.3042
					c0.14063-0.19141,0.18359-0.43848,0.11328-0.66553c-1.33759-4.36212-5.16546-7.36249-9.65918-7.66394v-0.71576
					c2.63061,0.38957,5.54545,0.13405,7.84375-1.23065c3.7998-2.25635,5.06738-6.96924,5.11914-7.16895
					c0.05078-0.19385,0.02148-0.3999-0.08105-0.57227c-0.10156-0.17236-0.26855-0.29688-0.46387-0.34521
					c-2.50567-0.61503-6.15462-0.47415-8.74414,1.06348c-1.685,1.00061-2.87006,2.48383-3.67383,3.84302v-8.57056h17.47656
					c0.40038,0,0.74781-0.32379,0.74939-0.74707c0-0.00104,0.00061-0.00189,0.00061-0.00293V4.51121z M18.19923,36.71141
					c-2.41602-1.43457-3.67969-4.15479-4.17678-5.48584c2.26511-0.32778,4.83474-0.13317,6.81545,1.04297
					c2.41602,1.43457,3.67969,4.15479,4.17676,5.48584C22.74957,38.08216,20.17994,37.88755,18.19923,36.71141z M38.00587,33.39256
					c-0.49707,1.33105-1.76074,4.05127-4.17676,5.48584c-1.98728,1.18091-4.55945,1.3688-6.81445,1.04248
					C28.98306,34.64988,32.76973,32.63484,38.00587,33.39256z M34.6211,49.24852H17.38087
					c1.4707-3.42627,4.81836-5.66357,8.62402-5.66357C29.80567,43.58495,33.1504,45.82225,34.6211,49.24852z M43.47755,25.83677
					l-1.35254-1.37476V3.66411l1.35254,1.18695V25.83677z M10.93696,25.51854h12.35797c0.52344,0,1.01172,0.20313,1.38184,0.57813
					c0.23315,0.23004,0.3913,0.51367,0.48242,0.82129H9.56159L10.93696,25.51854z M41.06135,25.51854l1.37677,1.39941H26.83796
					c0.24078-0.80621,0.98083-1.39941,1.8642-1.39941H41.06135z M28.70118,2.75145h11.92383v21.26709H28.70216
					c-0.72339,0-1.39606,0.22351-1.95117,0.60522v-5.78931c0-0.00513-0.00281-0.0094-0.00293-0.01453V4.70408
					C26.74806,3.62742,27.62403,2.75145,28.70118,2.75145z M11.37208,2.75145h11.92383c1.07617,0,1.95215,0.87598,1.95215,1.95264
					v19.91992c-0.56836-0.39355-1.24316-0.60547-1.95313-0.60547H11.37208V2.75145z M9.87208,3.66215v20.79913l-1.34963,1.37317
					V4.85008L9.87208,3.66215z"/><path fill="#293C66" d="M29.8877 7.86668h7.59863c.41406 0 .75-.33594.75-.75s-.33594-.75-.75-.75H29.8877c-.41406 0-.75.33594-.75.75S29.47364 7.86668 29.8877 7.86668zM29.8877 12.28367h7.59863c.41406 0 .75-.33594.75-.75s-.33594-.75-.75-.75H29.8877c-.41406 0-.75.33594-.75.75S29.47364 12.28367 29.8877 12.28367zM29.8877 16.70115h7.59863c.41406 0 .75-.33594.75-.75s-.33594-.75-.75-.75H29.8877c-.41406 0-.75.33594-.75.75S29.47364 16.70115 29.8877 16.70115zM29.8877 21.11864h7.59863c.41406 0 .75-.33594.75-.75s-.33594-.75-.75-.75H29.8877c-.41406 0-.75.33594-.75.75S29.47364 21.11864 29.8877 21.11864zM22.10938 6.36668h-7.59863c-.41406 0-.75.33594-.75.75s.33594.75.75.75h7.59863c.41406 0 .75-.33594.75-.75S22.52345 6.36668 22.10938 6.36668zM22.10938 10.78367h-7.59863c-.41406 0-.75.33594-.75.75s.33594.75.75.75h7.59863c.41406 0 .75-.33594.75-.75S22.52345 10.78367 22.10938 10.78367zM22.10938 15.20115h-7.59863c-.41406 0-.75.33594-.75.75s.33594.75.75.75h7.59863c.41406 0 .75-.33594.75-.75S22.52345 15.20115 22.10938 15.20115zM22.10938 19.61864h-7.59863c-.41406 0-.75.33594-.75.75s.33594.75.75.75h7.59863c.41406 0 .75-.33594.75-.75S22.52345 19.61864 22.10938 19.61864z"/></svg>