<svg xmlns="http://www.w3.org/2000/svg" data-name="Layer 1" viewBox="0 0 64 64"><path d="M17,50.88269V54H15.8a.8.8,0,0,0-.8.8V62a1,1,0,0,0,1,1h6a1,1,0,0,0,1-1V54.8a.8.8,0,0,0-.8-.8H21V50.88269a18.0011,18.0011,0,1,0-4,0ZM19,19.5A13.5,13.5,0,1,1,5.5,33,13.5,13.5,0,0,1,19,19.5Z"/><path d="M62 1H19a1 1 0 0 0-1 1V5H50V7H18v6l.0321.049C18.355 13.03345 18.67328 13 19 13A19.95607 19.95607 0 0 1 36.90558 41.8559L37 42H62a1 1 0 0 0 1-1V7H58V5h5V2A1 1 0 0 0 62 1zM49 36H42V19h7zM53 5h2V7H53zm7 8V36H53V13zM16 27.5a2.5 2.5 0 0 1 5 0v.82422a3.99372 3.99372 0 0 1-1.78125 3.32812A2.7318 2.7318 0 0 0 18 33.92969V39h2V33.92969a.73492.73492 0 0 1 .32812-.61328A5.99056 5.99056 0 0 0 23 28.32422V27.5a4.5 4.5 0 0 0-9 0V29h2z"/><rect width="2" height="2" x="18" y="41"/></svg>