<svg xmlns="http://www.w3.org/2000/svg" enable-background="new 0 0 64 64" viewBox="0 0 64 64"><path fill="#dbe7f6" d="M25.5,37.508h-3.99h-6.031H10.5c-5.523,0-10,4.477-10,10v16h35v-16C35.5,41.985,31.023,37.508,25.5,37.508z"/><path fill="#b4cbea" d="M30.232,38.609L5.435,63.406h30.038v-16C35.473,43.606,33.353,40.302,30.232,38.609z"/><path fill="#b4cbea" d="M51.5,38.508h-0.997H38.396H36.5c-1.76,0-3.426,0.388-4.931,1.068c2.386,1.828,3.931,4.697,3.931,7.935    v15.997h28v-13C63.5,43.88,58.127,38.508,51.5,38.508z"/><path fill="#79a1d5" d="M58.331,40.674L35.497,63.508h27.969v-13C63.466,46.436,61.432,42.843,58.331,40.674z"/><rect width="5.89" height="22.516" x="41.477" y="40.996" fill="#f4f8f8"/><polygon fill="#dbe7f6" points="41.442 57.563 41.442 63.511 47.332 63.511 47.332 51.673"/><path fill="#b4cbea" d="M47.503,37.842l-0.021,7.008l-0.227,0.304c-1.382,1.846-4.149,1.846-5.531,0l-0.227-0.304l0.021-7.009"/><path fill="#dbe7f6" d="M47.514,34.842l-0.021,7.008l-1.392,1.859c-0.8,1.069-2.402,1.069-3.202,0l-1.392-1.859l0.021-7.009"/><polygon fill="#b4cbea" points="47.238 34.775 41.622 34.774 41.605 40.408"/><path fill="#f4f8f8" d="M52.51,19.489c-0.001-4.417-3.582-7.998-8-7.998c-4.418,0-8,3.582-8,8v0.019v1v3.5v3.418h16v-3.418v-3.5    l0.042-1C52.538,19.504,52.525,19.496,52.51,19.489z"/><path fill="#b4cbea" d="M50.01,26.511h-1.5h-0.275c-0.346-0.597-0.985-1.003-1.724-1.003h-1h-2h-1c-0.74,0-1.378,0.406-1.724,1.003    H40.51h-1.5c-1.381,0-2.5-1.119-2.5-2.5v4.503c0,3.309,2.683,5.992,5.992,5.992h4.016c3.309,0,5.992-2.683,5.992-5.992v-4.503    C52.51,25.391,51.391,26.511,50.01,26.511z"/><path fill="#dbe7f6" d="M52.442,18.498l-8.931,8.931h8.999v-3.418v-3.5l0.042-1c-0.015-0.006-0.028-0.015-0.042-0.021    C52.51,19.153,52.483,18.823,52.442,18.498z"/><path fill="#79a1d5" d="M50.01,26.511h-1.5h-0.275c-0.346-0.597-0.985-1.003-1.724-1.003h-1h-0.078l-7.203,7.203    c1.087,1.107,2.599,1.795,4.273,1.795h4.016c3.309,0,5.992-2.683,5.992-5.992v-4.503C52.51,25.391,51.391,26.511,50.01,26.511z"/><rect width="5.89" height="22.516" x="15.477" y="40.996" fill="#f4f8f8"/><path fill="#79a1d5" d="M23.493,37.71c0,2.761-2.239,5-5,5h0c-2.761,0-5-2.239-5-5"/><polygon fill="#b4cbea" points="13.458 63.508 10.492 48.527 12.514 45.544 9.375 43.633 12.5 37.508 15.493 37.508 15.5 63.461"/><polygon fill="#b4cbea" points="23.417 63.508 26.383 48.527 24.361 45.544 27.5 43.633 24.375 37.508 21.383 37.508 21.375 63.461"/><polygon fill="#79a1d5" points="12.11 56.732 13.431 63.406 15.473 63.359 15.47 53.371"/><polygon fill="#dbe7f6" points="15.458 53.383 15.458 63.359 21.348 63.359 21.348 47.494"/><polygon fill="#79a1d5" points="26.742 42.099 21.353 47.489 21.348 63.359 23.39 63.406 26.356 48.426 24.334 45.442 27.473 43.531"/><path fill="#b4cbea" d="M41.5 23.508h-1c-1.105 0-2-.895-2-2v-1c0-.552.448-1 1-1h3c.552 0 1 .448 1 1v1C43.5 22.612 42.605 23.508 41.5 23.508zM48.5 23.508h-1c-1.105 0-2-.895-2-2v-1c0-.552.448-1 1-1h3c.552 0 1 .448 1 1v1C50.5 22.612 49.605 23.508 48.5 23.508z"/><path fill="#79a1d5" d="M47.5,23.508h1c1.105,0,2-0.895,2-2v-1c0-0.02-0.01-0.037-0.011-0.056l-3.05,3.05    C47.459,23.502,47.479,23.508,47.5,23.508z"/><polygon fill="#79a1d5" points="41.5 41.508 38.5 43.508 38.5 38.508 41.5 36.508"/><polygon fill="#dbe7f6" points="47.5 41.508 50.5 43.508 50.5 38.508 47.5 36.508"/><path fill="#dbe7f6" d="M21.516,32.978l-0.014,4.473c0,1.653-1.34,2.993-2.993,2.993h0c-1.653,0-2.993-1.34-2.993-2.993l0.014-4.474    L21.516,32.978z"/><path fill="#b4cbea" d="M16.823,39.921l4.692-4.692l0.001-2.252l-5.985-0.001l-0.014,4.474    C15.517,38.478,16.035,39.382,16.823,39.921z"/><path fill="#f4f8f8" d="M26.486,22.355l-1.353-1.282c-0.399-0.378-0.625-0.903-0.625-1.452v-0.12c0-0.552-0.448-1-1-1h-10    c-0.552,0-1,0.448-1,1v0.152c0,0.531-0.211,1.04-0.586,1.415l-1.289,1.287h-0.146v6.064v0.005v0.779    c0,1.379,0.711,2.661,1.881,3.39l3.484,2.172c1.619,1.009,3.671,1.008,5.288-0.003l3.469-2.168c1.168-0.73,1.878-2.01,1.878-3.388    v-0.782v-0.005v-6.064H26.486z"/><path fill="#b4cbea" d="M10.633,22.355l1.289-1.287c0.375-0.375,0.586-0.884,0.586-1.415v-0.152c0-0.552,0.448-1,1-1h10    c0.552,0,1,0.448,1,1v0.12c0,0.549,0.226,1.074,0.625,1.452l1.353,1.282h0.051l0.82-4.1c0.169-0.844,0.123-1.739-0.255-2.512    c-0.651-1.328-2.016-2.242-3.594-2.242h-4h-2.032h-4c-1.578,0-2.943,0.914-3.594,2.242c-0.379,0.773-0.424,1.668-0.255,2.512    l0.82,4.1H10.633z"/><path fill="#79a1d5" d="M23.508,13.501h-0.087l-5,5h5.087c0.552,0,1,0.448,1,1v0.12c0,0.549,0.226,1.074,0.625,1.452l1.353,1.282    h0.051l0.82-4.1c0.169-0.844,0.123-1.739-0.255-2.512C26.451,14.415,25.086,13.501,23.508,13.501z"/><path fill="#dbe7f6" d="M25.133,21.073c-0.399-0.378-0.625-0.903-0.625-1.452v-0.12c0-0.238-0.095-0.448-0.234-0.62L11.41,31.745    c0.27,0.327,0.588,0.617,0.958,0.848l3.484,2.172c1.619,1.009,3.671,1.008,5.288-0.003l3.469-2.168    c1.168-0.73,1.878-2.01,1.878-3.388v-0.782v-0.005v-6.064h-0.001L25.133,21.073z"/><path fill="#f4f8f8" d="M10.094,21.501H9.508c-0.552,0-1,0.448-1,1v3c0,0.552,0.448,1,1,1h0.979"/><path fill="#dbe7f6" d="M26.708,21.501h0.779c0.552,0,1,0.448,1,1v3c0,0.552-0.448,1-1,1h-0.979"/><path fill="#f4f8f8" d="M36.49,24.511H35.51c-0.552,0-1-0.448-1-1v-3c0-0.552,0.448-1,1-1h0.979"/><path fill="#dbe7f6" d="M52.51 19.511h.979c.552 0 1 .448 1 1v3c0 .552-.448 1-1 1H52.51M43.51 25.034v.476c0 .552.448 1 1 1l0 0c.552 0 1-.448 1-1v-.476"/><path fill="#4574ba" d="M56.5 63.463c-.276 0-.5-.224-.5-.5V49.508c0-.276.224-.5.5-.5s.5.224.5.5v13.455C57 63.239 56.776 63.463 56.5 63.463zM44.5 45.01c-.795 0-1.524-.364-2.001-1.001l-1.391-1.859c-.065-.087-.1-.192-.1-.302l.021-7.009c.001-.275.225-.498.5-.498 0 0 .001 0 .001 0 .276.001.5.226.499.502l-.021 6.841 1.291 1.726c.572.764 1.83.764 2.402 0l1.292-1.727.021-6.843c.001-.275.225-.498.5-.498 0 0 .001 0 .001 0 .276.001.5.226.499.502l-.021 7.008c0 .107-.035.212-.1.298l-1.391 1.859C46.024 44.646 45.295 45.01 44.5 45.01z"/><path fill="#4574ba" d="M41.476 64.011L41.476 64.011c-.277 0-.5-.225-.5-.5l.021-22.009c0-.276.224-.5.5-.5h0c.276 0 .5.225.5.5l-.021 22.009C41.976 63.787 41.752 64.011 41.476 64.011zM47.461 64.011L47.461 64.011c-.277 0-.5-.225-.5-.5l.021-22.008c0-.276.224-.5.5-.5h0c.276 0 .5.225.5.5l-.021 22.008C47.96 63.787 47.737 64.011 47.461 64.011z"/><path fill="#4574ba" d="M44.5 46.992c-1.114 0-2.135-.512-2.802-1.402l-.591-.79c-.166-.222-.12-.535.101-.7.222-.167.534-.119.7.101l.591.79c.477.637 1.206 1.002 2.001 1.002.795 0 1.524-.365 2.001-1.002l.591-.79c.165-.22.478-.268.7-.101.221.165.267.479.101.7l-.591.79C46.634 46.48 45.613 46.992 44.5 46.992zM52.5 27.927c-.276 0-.5-.224-.5-.5v-7.938c0-4.135-3.364-7.499-7.5-7.499S37 15.354 37 19.488v7.938c0 .276-.224.5-.5.5s-.5-.224-.5-.5v-7.938c0-4.687 3.813-8.499 8.5-8.499s8.5 3.813 8.5 8.499v7.938C53 27.703 52.776 27.927 52.5 27.927z"/><path fill="#4574ba" d="M44.5,27.008c-0.827,0-1.5-0.673-1.5-1.5v-0.477c0-0.276,0.224-0.5,0.5-0.5s0.5,0.224,0.5,0.5v0.477    c0,0.275,0.224,0.5,0.5,0.5s0.5-0.225,0.5-0.5v-0.477c0-0.276,0.224-0.5,0.5-0.5s0.5,0.224,0.5,0.5v0.477    C46,26.335,45.327,27.008,44.5,27.008z"/><circle cx="40.999" cy="21.506" r=".5" fill="#4574ba"/><circle cx="47.999" cy="21.506" r=".5" fill="#4574ba"/><path fill="#4574ba" d="M36.479 25.008H35.5c-.827 0-1.5-.673-1.5-1.5v-3c0-.827.673-1.5 1.5-1.5h.979c.276 0 .5.224.5.5s-.224.5-.5.5H35.5c-.276 0-.5.225-.5.5v3c0 .275.224.5.5.5h.979c.276 0 .5.224.5.5S36.755 25.008 36.479 25.008zM53.479 25.008H52.5c-.276 0-.5-.224-.5-.5s.224-.5.5-.5h.979c.276 0 .5-.225.5-.5v-3c0-.275-.224-.5-.5-.5H52.5c-.276 0-.5-.224-.5-.5s.224-.5.5-.5h.979c.827 0 1.5.673 1.5 1.5v3C54.979 24.335 54.306 25.008 53.479 25.008zM40.5 28.007c-.276 0-.5-.223-.5-.499v-.003c0-1.379 1.122-2.5 2.5-2.5h1c.276 0 .5.224.5.5s-.224.5-.5.5h-1c-.827 0-1.5.673-1.5 1.5C41 27.781 40.776 28.007 40.5 28.007zM48.5 28.007c-.276 0-.5-.223-.5-.499v-.003c0-.827-.673-1.5-1.5-1.5h-1c-.276 0-.5-.224-.5-.5s.224-.5.5-.5h1c1.378 0 2.5 1.121 2.5 2.5C49 27.781 48.777 28.007 48.5 28.007zM45 31.008h-1c-.276 0-.5-.224-.5-.5s.224-.5.5-.5h1c.276 0 .5.224.5.5S45.276 31.008 45 31.008z"/><path fill="#4574ba" d="M40.5 27.008H39c-1.654 0-3-1.346-3-3v-2.5c0-.276.224-.5.5-.5s.5.224.5.5v2.5c0 1.103.897 2 2 2h1.5c.276 0 .5.224.5.5S40.776 27.008 40.5 27.008zM50 27.008h-1.5c-.276 0-.5-.224-.5-.5s.224-.5.5-.5H50c1.103 0 2-.897 2-2v-2.5c0-.276.224-.5.5-.5s.5.224.5.5v2.5C53 25.662 51.654 27.008 50 27.008zM44.584 29.021c-.885 0-1.708-.28-2.32-.788-.212-.177-.241-.492-.064-.704.176-.212.491-.242.704-.065.852.709 2.509.709 3.36 0 .213-.177.528-.147.704.065.177.212.148.527-.064.704C46.292 28.741 45.469 29.021 44.584 29.021z"/><path fill="#4574ba" d="M46.521 35.008H42.5c-3.584 0-6.5-2.916-6.5-6.5v-2c0-.276.224-.5.5-.5s.5.224.5.5v2c0 3.032 2.467 5.5 5.5 5.5h4.021c3.033 0 5.5-2.468 5.5-5.5v-2c0-.276.224-.5.5-.5s.5.224.5.5v2C53.021 32.092 50.105 35.008 46.521 35.008zM40 20.008h-4c-.276 0-.5-.224-.5-.5s.224-.5.5-.5h4c.276 0 .5.224.5.5S40.276 20.008 40 20.008zM53 20.008h-4c-.276 0-.5-.224-.5-.5s.224-.5.5-.5h4c.276 0 .5.224.5.5S53.276 20.008 53 20.008zM45.5 21.812c-.221 0-.423-.147-.482-.371-.237-.619-.903-.485-1.034 0-.072.266-.345.427-.613.353-.267-.071-.425-.346-.353-.612.186-.691.796-1.175 1.483-1.175.624 0 1.182.39 1.421.992.024.061.045.122.062.185.071.267-.087.541-.354.612C45.585 21.806 45.542 21.812 45.5 21.812z"/><path fill="#4574ba" d="M41.5 24.008h-1c-1.378 0-2.5-1.121-2.5-2.5v-1c0-.827.673-1.5 1.5-1.5h3c.827 0 1.5.673 1.5 1.5v1C44 22.887 42.878 24.008 41.5 24.008zM39.5 20.008c-.276 0-.5.225-.5.5v1c0 .827.673 1.5 1.5 1.5h1c.827 0 1.5-.673 1.5-1.5v-1c0-.275-.224-.5-.5-.5H39.5zM48.5 24.008h-1c-1.378 0-2.5-1.121-2.5-2.5v-1c0-.827.673-1.5 1.5-1.5h3c.827 0 1.5.673 1.5 1.5v1C51 22.887 49.878 24.008 48.5 24.008zM46.5 20.008c-.276 0-.5.225-.5.5v1c0 .827.673 1.5 1.5 1.5h1c.827 0 1.5-.673 1.5-1.5v-1c0-.275-.224-.5-.5-.5H46.5z"/><path fill="#4574ba" d="M41.5 24.008h-1c-1.378 0-2.5-1.121-2.5-2.5v-1c0-.827.673-1.5 1.5-1.5h3c.827 0 1.5.673 1.5 1.5v1C44 22.887 42.878 24.008 41.5 24.008zM39.5 20.008c-.276 0-.5.225-.5.5v1c0 .827.673 1.5 1.5 1.5h1c.827 0 1.5-.673 1.5-1.5v-1c0-.275-.224-.5-.5-.5H39.5zM48.5 24.008h-1c-1.378 0-2.5-1.121-2.5-2.5v-1c0-.827.673-1.5 1.5-1.5h3c.827 0 1.5.673 1.5 1.5v1C51 22.887 49.878 24.008 48.5 24.008zM46.5 20.008c-.276 0-.5.225-.5.5v1c0 .827.673 1.5 1.5 1.5h1c.827 0 1.5-.673 1.5-1.5v-1c0-.275-.224-.5-.5-.5H46.5zM38.5 44.008c-.081 0-.162-.02-.236-.06C38.102 43.861 38 43.692 38 43.508v-5c0-.167.083-.323.223-.416l3-2c.153-.102.351-.112.513-.024C41.898 36.154 42 36.323 42 36.508v5c0 .167-.083.323-.223.416l-3 2C38.694 43.979 38.597 44.008 38.5 44.008zM39 38.775v3.798l2-1.333v-3.798L39 38.775zM41.5 41.508h.01H41.5zM50.5 44.008c-.097 0-.194-.028-.277-.084l-3-2C47.083 41.831 47 41.675 47 41.508v-5c0-.185.102-.354.264-.44.162-.088.359-.077.513.024l3 2C50.917 38.185 51 38.341 51 38.508v5c0 .185-.102.354-.264.44C50.662 43.988 50.581 44.008 50.5 44.008zM48 41.24l2 1.333v-3.798l-2-1.333V41.24zM5.5 63.467c-.276 0-.5-.224-.5-.5V49.511c0-.276.224-.5.5-.5s.5.224.5.5v13.456C6 63.243 5.776 63.467 5.5 63.467zM15.5 63.467c-.276 0-.5-.224-.5-.5l-.007-25.456c0-.276.224-.5.5-.5.276 0 .5.224.5.5L16 62.967C16 63.243 15.776 63.467 15.5 63.467zM30.5 63.467c-.276 0-.5-.224-.5-.5V49.511c0-.276.224-.5.5-.5s.5.224.5.5v13.456C31 63.243 30.776 63.467 30.5 63.467z"/><path fill="#4574ba" d="M18.498,41.214c-1.926,0-3.493-1.567-3.493-3.493l-0.013-3.119c-0.001-0.277,0.21-0.532,0.5-0.502    c0.275,0,0.499,0.223,0.5,0.498l0.013,3.121c0,1.377,1.118,2.495,2.493,2.495s2.493-1.118,2.493-2.493l0.012-3.157    c0.001-0.275,0.225-0.498,0.5-0.498c0.298-0.044,0.5,0.225,0.5,0.502l-0.012,3.155C21.991,39.646,20.424,41.214,18.498,41.214z"/><path fill="#4574ba" d="M18.493 43.209c-1.202 0-2.343-.381-3.301-1.101-.221-.166-.265-.479-.1-.7.166-.22.479-.267.7-.099 1.572 1.18 3.847 1.177 5.417-.013.219-.168.534-.124.7.097.167.22.124.533-.096.7C20.851 42.823 19.702 43.209 18.493 43.209zM19 33.011h-1c-.276 0-.5-.224-.5-.5s.224-.5.5-.5h1c.276 0 .5.224.5.5S19.276 33.011 19 33.011zM13.458 64.011c-.234 0-.443-.165-.49-.403l-2.966-14.979c-.026-.131.001-.267.076-.377l1.727-2.55-2.69-1.639c-.223-.136-.304-.421-.185-.654l3.125-6.125c.125-.246.425-.345.672-.218.246.125.344.427.218.673l-2.914 5.712 2.743 1.67c.117.071.199.187.229.32.029.134.002.273-.075.387l-1.904 2.812 2.925 14.775c.054.271-.122.533-.393.587C13.523 64.008 13.49 64.011 13.458 64.011z"/><path fill="#4574ba" d="M21.503 63.467L21.503 63.467c-.276 0-.5-.224-.5-.5l.007-25.456c0-.276.224-.5.5-.5l0 0c.276 0 .5.224.5.5l-.007 25.456C22.003 63.243 21.779 63.467 21.503 63.467zM23.545 64.011c-.032 0-.065-.003-.098-.01-.271-.054-.447-.316-.393-.587l2.925-14.775-1.904-2.812c-.077-.113-.104-.253-.075-.387.029-.134.112-.249.229-.32l2.743-1.67-2.914-5.712c-.125-.246-.028-.548.218-.673.247-.127.547-.028.672.218l3.125 6.125c.119.233.038.519-.185.654l-2.69 1.639 1.727 2.55c.075.11.103.246.077.377l-2.966 14.979C23.988 63.846 23.779 64.011 23.545 64.011zM26.5 28.93c-.276 0-.5-.224-.5-.5v-5.938c0-.276.224-.5.5-.5s.5.224.5.5v5.938C27 28.706 26.776 28.93 26.5 28.93zM10.5 28.93c-.276 0-.5-.224-.5-.5v-5.938c0-.276.224-.5.5-.5s.5.224.5.5v5.938C11 28.706 10.776 28.93 10.5 28.93zM18.5 28.011c-.827 0-1.5-.673-1.5-1.5 0-.276.224-.5.5-.5s.5.224.5.5c0 .275.224.5.5.5s.5-.225.5-.5c0-.276.224-.5.5-.5s.5.224.5.5C20 27.338 19.327 28.011 18.5 28.011z"/><path fill="#4574ba" d="M10.479 27.011H9.5c-.827 0-1.5-.673-1.5-1.5v-3c0-.827.673-1.5 1.5-1.5h.586c.276 0 .5.224.5.5s-.224.5-.5.5H9.5c-.276 0-.5.225-.5.5v3c0 .275.224.5.5.5h.979c.276 0 .5.224.5.5S10.755 27.011 10.479 27.011zM27.479 27.011H26.5c-.276 0-.5-.224-.5-.5s.224-.5.5-.5h.979c.276 0 .5-.225.5-.5v-3c0-.275-.224-.5-.5-.5H26.7c-.276 0-.5-.224-.5-.5s.224-.5.5-.5h.779c.827 0 1.5.673 1.5 1.5v3C28.979 26.338 28.306 27.011 27.479 27.011zM18.518 36.029c-1.013 0-2.026-.275-2.91-.827l-3.488-2.173C10.792 32.201 10 30.773 10 29.21v-.78c0-.276.224-.5.5-.5s.5.224.5.5v.78c0 1.216.616 2.326 1.648 2.971l3.488 2.173c1.448.903 3.319.903 4.766-.002l3.473-2.171c1.03-.644 1.646-1.753 1.646-2.968V28.43c0-.276.224-.5.5-.5s.5.224.5.5v.783c0 1.563-.791 2.988-2.116 3.815l-3.473 2.171C20.547 35.753 19.533 36.029 18.518 36.029z"/><path fill="#4574ba" d="M18.521 31.004c-1.269 0-2.448-.399-3.32-1.124-.212-.177-.241-.492-.064-.704.176-.212.49-.24.704-.065 1.365 1.137 3.995 1.137 5.36 0 .213-.176.528-.147.704.065.177.212.148.527-.064.704C20.969 30.604 19.79 31.004 18.521 31.004zM26.5 25.511c-.276 0-.5-.224-.5-.5v-2.41l-1.219-1.153C24.285 20.977 24 20.314 24 19.632v-.121c0-.275-.224-.5-.5-.5h-10c-.276 0-.5.225-.5.5v.152c0 .669-.26 1.297-.733 1.769L11 22.697v2.313c0 .276-.224.5-.5.5s-.5-.224-.5-.5V22.49c0-.133.053-.26.146-.354l1.414-1.412c.284-.283.44-.66.44-1.062v-.152c0-.827.673-1.5 1.5-1.5h10c.827 0 1.5.673 1.5 1.5v.121c0 .41.171.807.469 1.09l1.375 1.301c.1.095.156.226.156.363v2.625C27 25.287 26.776 25.511 26.5 25.511z"/><path fill="#4574ba" d="M26.5,23.011c-0.033,0-0.065-0.003-0.099-0.01c-0.271-0.054-0.446-0.317-0.392-0.588l0.849-4.246    c0.114-0.569,0.169-1.412-0.214-2.194c-0.593-1.21-1.798-1.962-3.145-1.962h-8c-0.276,0-0.5-0.224-0.5-0.5s0.224-0.5,0.5-0.5h8    c1.731,0,3.28,0.967,4.043,2.522c0.401,0.818,0.503,1.797,0.296,2.83l-0.849,4.245C26.943,22.847,26.734,23.011,26.5,23.011z"/><path fill="#4574ba" d="M10.467 23.011c-.233 0-.442-.164-.49-.402l-.85-4.246c-.207-1.033-.104-2.012.296-2.829.763-1.556 2.313-2.522 4.043-2.522h8c.276 0 .5.224.5.5s-.224.5-.5.5h-8c-1.347 0-2.552.752-3.146 1.962-.383.782-.328 1.625-.214 2.194l.85 4.246c.054.271-.122.534-.392.588C10.533 23.008 10.5 23.011 10.467 23.011zM35.5 64.011h-35c-.276 0-.5-.224-.5-.5v-16c0-5.79 4.71-10.5 10.5-10.5h4.979c.276 0 .5.224.5.5s-.224.5-.5.5H10.5c-5.238 0-9.5 4.262-9.5 9.5v15.5h34v-15.5c0-5.238-4.262-9.5-9.5-9.5h-3.99c-.276 0-.5-.224-.5-.5s.224-.5.5-.5h3.99c5.79 0 10.5 4.71 10.5 10.5v16C36 63.787 35.776 64.011 35.5 64.011z"/><path fill="#4574ba" d="M63.5,64.008h-28c-0.276,0-0.5-0.224-0.5-0.5V47.512c0-2.972-1.361-5.72-3.735-7.539    c-0.14-0.106-0.212-0.279-0.192-0.454c0.02-0.174,0.13-0.325,0.291-0.398c1.633-0.738,3.361-1.112,5.137-1.112h1.896    c0.276,0,0.5,0.224,0.5,0.5s-0.224,0.5-0.5,0.5H36.5c-1.363,0-2.696,0.24-3.973,0.715C34.744,41.715,36,44.51,36,47.512v15.496h27    v-12.5c0-6.341-5.159-11.5-11.5-11.5h-0.998c-0.276,0-0.5-0.224-0.5-0.5s0.224-0.5,0.5-0.5H51.5c6.893,0,12.5,5.607,12.5,12.5v13    C64,63.784,63.776,64.008,63.5,64.008z"/><circle cx="15.02" cy="23.999" r="1" fill="#4574ba"/><path fill="#4574ba" d="M17.005,23.004c-0.152,0-0.303-0.069-0.401-0.201c-0.373-0.5-0.942-0.791-1.566-0.803    c-0.624,0.012-1.193,0.303-1.566,0.802c-0.166,0.222-0.478,0.268-0.7,0.102c-0.221-0.165-0.267-0.479-0.101-0.699    c0.546-0.731,1.372-1.165,2.279-1.201C14.977,20.999,15.007,21,15.037,21c0.03-0.001,0.061-0.001,0.091,0.003    c0.896,0.039,1.739,0.481,2.277,1.202c0.165,0.221,0.12,0.534-0.102,0.699C17.214,22.972,17.109,23.004,17.005,23.004z"/><circle cx="22.02" cy="23.999" r="1" fill="#4574ba"/><path fill="#4574ba" d="M24.005,23.004c-0.152,0-0.303-0.069-0.401-0.201c-0.373-0.5-0.942-0.791-1.566-0.803    c-0.624,0.012-1.193,0.303-1.566,0.802c-0.166,0.222-0.479,0.268-0.7,0.102c-0.221-0.165-0.267-0.479-0.101-0.699    c0.546-0.731,1.372-1.165,2.279-1.201C21.978,20.999,22.008,21,22.037,21c0.031-0.001,0.061-0.001,0.091,0.003    c0.896,0.039,1.739,0.481,2.277,1.202c0.165,0.221,0.12,0.534-0.102,0.699C24.214,22.972,24.109,23.004,24.005,23.004z"/></svg>