<svg xmlns="http://www.w3.org/2000/svg" data-name="Layer 1" viewBox="0 0 64 64"><path d="M3 62H19a1 1 0 0 0 1-1V57a9.01 9.01 0 0 0-5.623-8.337 5 5 0 1 0-6.754 0A9.01 9.01 0 0 0 2 57v4A1 1 0 0 0 3 62zm8-20a3 3 0 1 1-3 3A3 3 0 0 1 11 42zM4 57a7 7 0 0 1 14 0v3H4zM58.814 3.091H55.729a7.011 7.011 0 0 0-7.458 0h-.542a7.011 7.011 0 0 0-7.458 0H37.186A3.293 3.293 0 0 0 34 6.476V15a1 1 0 0 0 1 1H61a1 1 0 0 0 1-1V6.476A3.293 3.293 0 0 0 58.814 3.091zM36 14V6.476a1.3 1.3 0 0 1 1.186-1.385H39v8.818c0 .031.011.06.013.091zm5.576 0a4.963 4.963 0 0 1 4.848 0zM47 12.035a7.061 7.061 0 0 0-6 0V5.01a4.951 4.951 0 0 1 6 0zM49.576 14a4.963 4.963 0 0 1 4.848 0zM55 12.035a7.061 7.061 0 0 0-6 0V5.01a4.951 4.951 0 0 1 6 0zM60 14H56.987c0-.031.013-.06.013-.091V5.091h1.814A1.3 1.3 0 0 1 60 6.476z"/><path d="M52.5,27h-40a8.5,8.5,0,0,1,0-17H32V8H12.5a10.5,10.5,0,0,0,0,21h40a7.5,7.5,0,0,1,0,15H18v2H52.5a9.5,9.5,0,0,0,0-19Z"/></svg>