<svg xmlns="http://www.w3.org/2000/svg" width="26" height="26" viewBox="0 0 26 26"><path d="M 13 0 C 5.8262428 0 3e-005 5.8262 0 13 C -2.7e-005 20.1738 5.8262018 26 13 26 C 20.173798 26 26.000028 20.1738 26 13 C 25.99997 5.8262 20.173758 0 13 0 z M 13 1 C 19.633268 1 24.999973 6.3667 25 13 C 25.000026 19.6333 19.633306 25 13 25 C 6.3666948 25 0.999975 19.6333 1 13 C 1.0000279 6.3667 6.3667328 1 13 1 z M 6 6 L 6 6.5 L 6 16 L 12.5 16 L 12.5 18.546875 L 10.699219 19.898438 L 10.300781 20.197266 L 10.900391 20.998047 L 11.300781 20.697266 L 12.5 19.796875 L 12.5 20.5 L 12.5 21 L 13.5 21 L 13.5 20.5 L 13.5 19.796875 L 14.699219 20.697266 L 15.099609 20.998047 L 15.699219 20.197266 L 15.300781 19.898438 L 13.5 18.546875 L 13.5 16 L 20 16 L 20 6 L 6 6 z M 7 7 L 19 7 L 19 15 L 7 15 L 7 7 z M 12.015625 8.6113281 L 12.015625 9.5 L 12.015625 13.388672 L 15.949219 11 L 12.015625 8.6113281 z M 13.015625 10.388672 L 14.023438 11.001953 L 13.015625 11.613281 L 13.015625 10.388672 z " color="#000" font-family="sans-serif" font-weight="400" overflow="visible" style="line-height:normal;text-indent:0;text-align:start;text-decoration-line:none;text-decoration-style:solid;text-decoration-color:#000;text-transform:none;block-progression:tb;isolation:auto;mix-blend-mode:normal"/></svg>