<svg xmlns="http://www.w3.org/2000/svg" viewBox="0 0 64 64"><path d="M57,27c-.06409,0-.1236.01654-.18707.01892l-3.84143-8.963c5.07158-4.74567-2.06952-12.06483-6.94825-7.12378L36.96863,7.3103a4.98236,4.98236,0,1,0-9.94971-.12323l-8.963,3.84143c-2.88977-3.48885-8.82233-1.21734-8.73357,3.29388a5.02494,5.02494,0,0,0,7.80516,4.13551,16.29747,16.29747,0,0,0,1.47736,1.561c-7.25049,7.81261-5.62036,20.8515,3.12016,26.73922,11.68676,8.28058,28.28628-.22652,28.27492-14.75829.054-15.48661-18.63659-23.737-29.981-13.395a16.252,16.252,0,0,0-1.561-1.47736,4.906,4.906,0,0,0,.59747-4.35211L27.507,9.15308a4.98659,4.98659,0,0,0,8.93182.09961L44.97711,12.668a4.99141,4.99141,0,0,0,6.2475,6.38739L54.84692,27.507a4.98659,4.98659,0,0,0-.09961,8.93182L51.332,44.97711a4.99141,4.99141,0,0,0-6.38739,6.2475L36.493,54.84692a4.98659,4.98659,0,0,0-8.93182-.09961L19.02289,51.332a4.99141,4.99141,0,0,0-6.2475-6.38739L9.15308,36.493A4.99933,4.99933,0,0,0,6.99987,27c-6.74765.256-6.5469,10.02419.1872,9.98106l3.84143,8.963c-5.07158,4.74567,2.06952,12.06483,6.94825,7.12378l9.05462,3.62183a4.98236,4.98236,0,1,0,9.94971.12323l8.963-3.84143c4.74567,5.07158,12.06483-2.06952,7.12378-6.94825l3.62183-9.05462C63.49985,37.19146,63.82615,27.26261,57,27ZM12.20117,16.44336a2.99986,2.99986,0,0,1,4.24225-4.24212A2.99986,2.99986,0,0,1,12.20117,16.44336ZM23.43073,45.48877A8.09091,8.09091,0,0,1,29.2204,40.116a3.00035,3.00035,0,0,0,5.55176-.00153,8.09061,8.09061,0,0,1,5.79711,5.37433A16.03859,16.03859,0,0,1,23.43073,45.48877ZM32,36a8.00917,8.00917,0,0,1-8-8c.43956-10.61307,15.56206-10.61,16,.00006A8.00919,8.00919,0,0,1,32,36Zm0,2c.33752,0,.671-.01788,1-.05072V39a1.00067,1.00067,0,0,1-1,1,1.01519,1.01519,0,0,1-1-1.05957v-.99115C31.329,37.98212,31.66248,38,32,38Zm16-6a15.96718,15.96718,0,0,1-5.7276,12.25006A10.1301,10.1301,0,0,0,35,38.09943V37.5387C45.75429,33.96149,43.4684,18.23561,31.99985,18,20.52957,18.23663,18.2474,33.96352,29,37.5387v.56073a10.1301,10.1301,0,0,0-7.2724,6.15063,16.04145,16.04145,0,0,1-.97117-23.61713C30.647,10.70584,48.03546,17.83417,48,32ZM32,10a3.00019,3.00019,0,0,1,.00009-6A3.00019,3.00019,0,0,1,32,10Zm15.55664,6.44336a2.99986,2.99986,0,0,1,4.24225-4.24212A2.99986,2.99986,0,0,1,47.55664,16.44336ZM4,32a3.00019,3.00019,0,0,1,6,.00009A3.00019,3.00019,0,0,1,4,32Zm8.20117,19.79883a2.99986,2.99986,0,0,1,4.24225-4.24212A2.99986,2.99986,0,0,1,12.20117,51.79883ZM32,60a3.00019,3.00019,0,0,1,.00009-6A3.00019,3.00019,0,0,1,32,60Zm19.79883-8.20117a2.99994,2.99994,0,0,1-4.24212-4.24226A2.99994,2.99994,0,0,1,51.79883,51.79883ZM57,35a3.00019,3.00019,0,0,1,.00009-6A3.00019,3.00019,0,0,1,57,35Z"/></svg>