<svg xmlns="http://www.w3.org/2000/svg" viewBox="0 0 64 64"><path d="M59,44H58V11a3,3,0,0,0-3-3H9a3,3,0,0,0-3,3V44H5a3,3,0,0,0-3,3v2a7,7,0,0,0,7,7H55a7,7,0,0,0,7-7V47A3,3,0,0,0,59,44ZM8,11a1,1,0,0,1,1-1H55a1,1,0,0,1,1,1V44H8ZM35.41,47.24a1,1,0,0,1-1,.76H29.56a1,1,0,0,1-1-.76L28.28,46h7.44Z"/><path d="M22.22 26.79a5 5 0 1 0-6.44 0A7 7 0 0 0 12 33v4a3 3 0 0 0 3 3h8a3 3 0 0 0 3-3V33A7 7 0 0 0 22.22 26.79zM16 23a3 3 0 1 1 3 3A3 3 0 0 1 16 23zm8 14a1 1 0 0 1-1 1H15a1 1 0 0 1-1-1V33a5 5 0 0 1 10 0zM49 14H33a3 3 0 0 0-3 3V33a3 3 0 0 0 3 3H49a3 3 0 0 0 3-3V17A3 3 0 0 0 49 14zM36 19h4a1 1 0 0 1 0 2H36a1 1 0 0 1 0-2zM46 31H36a1 1 0 0 1 0-2H46a1 1 0 0 1 0 2zm0-5H36a1 1 0 0 1 0-2H46a1 1 0 0 1 0 2z"/></svg>